<svg class="qodef-svg--star-test" xmlns="http://www.w3.org/2000/svg" width="22.503" height="21.408" viewBox="0 0 22.503 21.408"><path fill="#d9bf8d" d="m18.217 21.4-6.957-3.654-6.95 3.662 1.321-7.744L0 8.185l7.774-1.137L11.244 0l3.483 7.042L22.5 8.164l-5.621 5.489Z"></path><path d="M11.073 14.539c-.268-.038-.439-.286-.578-.516l-.277-.458.209-.158.277.458c.114.186.241.379.422.402a.433.433 0 0 0 .373-.26 1.816 1.816 0 0 0 .151-.6l.248.031-.013.128h-.005a1.794 1.794 0 0 1-.162.572.671.671 0 0 1-.616.4Z"></path><path d="M8.413 11.857a2.5 2.5 0 0 1-1.024-.394l.138-.269a2.271 2.271 0 0 0 1.162.379 1.311 1.311 0 0 0 1.008-.516l.185.2a1.56 1.56 0 0 1-1.212.63 2.15 2.15 0 0 1-.257-.03Z"></path><path d="M13.306 11.943a2.492 2.492 0 0 1-.94-.57l.182-.241a2.272 2.272 0 0 0 1.08.575 1.311 1.311 0 0 0 1.082-.333l.149.224a1.561 1.561 0 0 1-1.3.41 2.143 2.143 0 0 1-.253-.065Z"></path></svg>